<svg viewBox="0 0 96 96" xmlns="http://www.w3.org/2000/svg" xmlns:xlink="http://www.w3.org/1999/xlink" id="Icons_CloudComputing" overflow="hidden"><path d="M81.4 19.4C80.6 14.7 76.4 11.1 71.5 11.1 71 11.1 70.4 11.2 69.9 11.2 67.5 8.2 63.8 6.3 59.6 6.3 53.5 6.3 48.4 10.4 46.8 16 41.2 17.1 37 22 37 27.9 37 34.6 42.4 40 49 40L49 40C49 40 78.6 40 79 40 84.8 40 89.1 35.3 89.1 29.5 89.1 24.7 85.8 20.7 81.4 19.4ZM78.4 34 48.8 34C46.5 33.8 44.5 32.5 43.5 30.5 42.6 28.4 42.8 26 44.2 24.1 45.4 22.5 47.2 21.6 49.1 21.6 49.4 21.6 49.8 21.6 50.1 21.7L51.9 22 51.9 20C51.9 16.4 54.3 13.3 57.8 12.5 58.4 12.4 59 12.3 59.6 12.3 59.6 12.3 59.6 12.3 59.6 12.3L59.6 12.3C59.6 12.3 59.6 12.3 59.6 12.3 62.5 12.3 65.1 13.9 66.4 16.5L67 17.7 68.3 17.2C68.9 17 69.6 16.9 70.3 16.9 71.6 16.9 72.8 17.3 73.9 18 75.5 19.2 76.5 21.1 76.5 23.1L76.5 24.7 78.5 24.7C81.1 24.7 83.2 26.8 83.2 29.4 83.1 31.9 81 34 78.4 34Z" stroke="#F2F2F2" fill="#4472C4"/><path d="M51.8 44 10.2 44C8.4 44 7 45.4 7 47.2L7 75.8C7 77.6 8.4 79 10.2 79 10.2 79 10.2 79 10.2 79L26 79 26 83 19 83 19 89 43 89 43 83 36 83 36 79 51.8 79C53.6 79 55 77.6 55 75.8L55 75.8 55 47.2C55 45.4 53.6 44 51.8 44ZM49 73 13 73 13 50 49 50 49 73Z" stroke="#F2F2F2" fill="#4472C4"/><path d="M69.8 44C70.8 45.3 71.3 47 71.3 48.6 71.3 51.6 69.6 54.3 67 55.7L67 51.6 59.7 59 67 66.2 67 62.1C74.5 60.1 78.9 52.4 76.8 44.9 76.7 44.6 76.6 44.3 76.5 44L69.8 44Z" stroke="#F2F2F2" fill="#4472C4"/><path d="M22.9 40C22.1 39 21.4 37 21.4 35.4 21.4 32.4 23.1 29.7 25.7 28.3L25.7 32.4 33 25 25.7 17.8 25.7 21.9C18.2 23.9 13.8 31.6 15.9 39.1 16 39.4 16.1 39.7 16.2 40L22.9 40Z" stroke="#F2F2F2" fill="#4472C4"/></svg>